HIERARCHY
ROOT hip
{
	OFFSET 0.000000 0.000000 0.000000 
	CHANNELS 6 Xposition Yposition Zposition Xrotation Zrotation Yrotation
	JOINT abdomen
	{
		OFFSET 0.000000 3.402643 0.000000 
		CHANNELS 3 Xrotation Zrotation Yrotation
		JOINT chest
		{
			OFFSET 0.000000 8.438565 -0.680529 
			CHANNELS 3 Xrotation Zrotation Yrotation
			JOINT neck
			{
				OFFSET 0.000000 10.207942 -0.272212 
				CHANNELS 3 Xrotation Zrotation Yrotation
				JOINT head
				{
					OFFSET 0.000000 3.130431 0.000000 
					CHANNELS 3 Xrotation Zrotation Yrotation
					End Site
					{
						OFFSET 0.000000 3.130435 0.000000 
					}
				}
			}
			JOINT lCollar
			{
				OFFSET 3.470700 6.669187 -0.816635 
				CHANNELS 3 Yrotation Zrotation Xrotation
				JOINT lShldr
				{
					OFFSET 3.198488 0.000000 0.000000 
					CHANNELS 3 Zrotation Yrotation Xrotation
					JOINT lForeArm
					{
						OFFSET 10.139888 0.000000 0.000000 
						CHANNELS 3 Yrotation Zrotation Xrotation
						JOINT lHand
						{
							OFFSET 8.370511 0.000000 0.000000 
							CHANNELS 3 Zrotation Yrotation Xrotation
							End Site
							{
								OFFSET 4.083176 0.000000 0.000000 
							}
						}
					}
				}
			}
			JOINT rCollar
			{
				OFFSET -3.470700 6.669187 -0.816635 
				CHANNELS 3 Yrotation Zrotation Xrotation
				JOINT rShldr
				{
					OFFSET -3.198488 0.000000 0.000000 
					CHANNELS 3 Zrotation Yrotation Xrotation
					JOINT rForeArm
					{
						OFFSET -10.139888 0.000000 0.000000 
						CHANNELS 3 Yrotation Zrotation Xrotation
						JOINT rHand
						{
							OFFSET -8.370511 0.000000 0.000000 
							CHANNELS 3 Zrotation Yrotation Xrotation
							End Site
							{
								OFFSET -4.083176 0.000000 0.000000 
							}
						}
					}
				}
			}
		}
	}
	JOINT lThigh
	{
		OFFSET 5.308129 -1.633274 1.361059 
		CHANNELS 3 Xrotation Zrotation Yrotation
		JOINT lShin
		{
			OFFSET -2.041588 -20.007561 0.000000 
			CHANNELS 3 Xrotation Zrotation Yrotation
			JOINT lFoot
			{
				OFFSET 0.000000 -19.190928 -1.224953 
				CHANNELS 3 Xrotation Yrotation Zrotation
				End Site
				{
					OFFSET 0.000000 -2.449906 4.627600 
				}
			}
		}
	}
	JOINT rThigh
	{
		OFFSET -5.308129 -1.633274 1.361059 
		CHANNELS 3 Xrotation Zrotation Yrotation
		JOINT rShin
		{
			OFFSET 2.041588 -20.007561 0.000000 
			CHANNELS 3 Xrotation Zrotation Yrotation
			JOINT rFoot
			{
				OFFSET 0.000000 -19.190928 -1.224953 
				CHANNELS 3 Xrotation Yrotation Zrotation
				End Site
				{
					OFFSET 0.000000 -2.449906 4.627600 
				}
			}
		}
	}
}
MOTION
Frames: 6
Frame Time: 0.033333
-5.781774 36.050190 -4.524869 0.234375 0.058594 79.082031 30.660566 -9.698592 -4.665598 -34.003910 9.716797 14.287110 -8.603516 0.000000 0.000000 6.679687 2.998047 -5.302735 2.000000 -2.000000 0.000000 -3.007812 -2.041015 7.157857 2.777071 -1.793545 0.041344 1.756760 -3.283567 0.058713 -2.000000 2.000000 0.000000 -2.314453 0.341797 -2.373049 -4.037045 1.773470 0.049629 -1.786088 3.264010 0.057537 11.848189 11.979547 25.655720 -1.763112 -4.135979 0.029363 4.579371 -0.068774 -0.043564 7.869598 -14.930264 -8.422710 -1.112166 4.134637 0.048452 6.982356 -0.031533 0.000398 
-5.712780 36.011066 -4.089077 -0.361328 -0.380859 79.208984 30.660566 -9.698592 -4.665598 -34.863281 10.283202 13.947055 -8.603516 0.000000 0.000000 7.148438 3.388672 -5.302157 2.000000 -2.000000 0.000000 -2.597656 -2.080078 14.052735 2.777071 -1.793545 0.041344 1.756760 -3.283567 0.058713 -2.000000 2.000000 0.000000 -1.425781 0.478516 -4.609299 -4.037045 1.773470 0.049629 -1.786088 3.264010 0.057537 11.243530 12.907085 26.048101 -1.070373 -4.146697 -0.090072 4.804689 0.010391 -0.027394 8.032432 -14.144583 -8.501574 -1.473292 4.135025 0.031429 6.855186 -0.065273 0.000039 
-5.641840 35.964584 -3.591976 -1.005859 -0.908203 79.511566 30.660566 -9.698592 -4.665598 -35.917969 10.781250 13.232422 -8.603516 0.000000 0.000000 7.724609 4.072266 -5.283204 2.000000 -2.000000 0.000000 -2.265625 -2.207031 21.855093 2.776827 -1.794122 0.031598 1.756760 -3.283567 0.058713 -2.000000 2.000000 0.000000 0.029297 0.605469 -7.167968 -4.056332 1.774048 0.039884 -1.786088 3.264010 0.057537 10.434944 14.001159 26.296032 -0.308405 -4.142117 -0.097861 5.019331 -0.038576 -0.023004 8.085263 -13.231638 -8.612663 -1.679335 4.138384 -0.042461 6.591796 0.021186 -0.034215 
-5.580597 35.924427 -3.134310 -1.572266 -1.240234 80.009766 30.660566 -9.698592 -4.665598 -36.669922 11.171876 12.226563 -8.603516 0.000000 0.000000 8.222656 4.746094 -5.223802 2.000000 -2.000000 0.000000 -2.207031 -2.460938 29.736328 2.767305 -1.793545 0.041344 1.756760 -3.283567 0.058713 -2.000000 2.000000 0.000000 1.650391 0.654297 -9.745980 -4.056332 1.774048 0.039884 -1.786088 3.264010 0.057537 9.784403 15.019875 26.359343 0.349089 -4.128214 -0.136816 5.185213 -0.045333 -0.045691 8.216694 -12.404890 -8.720613 -1.737213 4.136313 -0.027209 6.171874 -0.008994 0.007367 
-5.531685 35.900017 -2.788414 -2.001953 -1.171875 80.468750 30.660566 -9.698592 -4.665598 -36.738285 11.533203 11.210938 -8.603516 0.000000 0.000000 8.476563 5.117187 -5.174911 2.000000 -2.000000 0.000000 -2.412109 -2.880859 37.333488 2.747530 -1.794123 0.031598 1.756760 -3.283567 0.058713 -2.000000 2.000000 0.000000 2.968750 0.576172 -12.236327 -4.037045 1.773470 0.049629 -1.786088 3.264010 0.057537 9.626057 15.760501 26.250746 0.735970 -4.136621 -0.204655 5.312497 0.003337 -0.039964 8.603034 -11.768023 -8.791957 -1.715806 4.145555 -0.016298 5.781237 0.015167 -0.005355 
-5.490533 35.890728 -2.578846 -2.314453 -0.751953 80.712761 30.660566 -9.698592 -4.665598 -36.181644 11.894532 10.390626 -8.603516 0.000000 0.000000 8.476563 5.039062 -5.135862 2.000000 -2.000000 0.000000 -2.705078 -3.359375 44.697262 2.747530 -1.794123 0.031598 1.756760 -3.283567 0.058713 -2.000000 2.000000 0.000000 3.593750 0.400391 -14.628922 -4.037045 1.773470 0.049629 -1.786088 3.264010 0.057537 10.036652 16.189810 26.159559 0.852608 -4.133940 -0.213360 5.292972 0.017781 -0.035240 9.184716 -11.391931 -8.806992 -1.638509 4.133693 -0.039411 5.556640 0.009235 -0.017512 
